Error starting ffmpeg -loglevel +timing -y -print_graphs_file "/logs/ffmpeg-directstream-79e72c27-c69b-4273-a990-1204bbc50d82_1graph.txt" -copyts -start_at_zero -f matroska,webm -c:v:0 h264 -noautorotate -i "/media/dropbox/CASTELLANO/Novedades 2024/Alice Subservience (2024) [1080p] [2,3 Mbps] [[spa, eng]] [2,80 G].mkv" -map 0:0 -map 0:1 -sn -c:v:0 copy -c:a:0 copy -metadata:s:a:0 language=spa -disposition:a:0 default -avoid_negative_ts disabled -map_metadata -1 -map_chapters -1 "/transcoding-temp/X16323C/X16323C" 23:42:30.109 ffmpeg version 5.1-emby_2023_06_25 Copyright (c) 2000-2022 the FFmpeg developers and softworkz for Emby LLC 23:42:30.109 built with gcc 10.3.0 (crosstool-NG 1.25.0) 23:42:30.109 Execution Date: 2025-06-25 23:42:30 23:42:31.674 Input #0, matroska,webm, from '/media/dropbox/CASTELLANO/Novedades 2024/Alice Subservience (2024) [1080p] [2,3 Mbps] [[spa, eng]] [2,80 G].mkv': 23:42:31.674 Metadata: 23:42:31.674 encoder : libebml v1.4.5 + libmatroska v1.7.1 23:42:31.674 creation_time : 2024-12-25T23:27:00.000000Z 23:42:31.674 Duration: 01:45:40.38, start: 0.000000, bitrate: 3531 kb/s 23:42:31.674 Stream #0:0: Video: h264 (High), yuv420p(tv, bt709, progressive), 1920x800 [SAR 1:1 DAR 12:5], Level 41, 23.98 fps, 23.98 tbr, 1k tbn (default) 23:42:31.674 Metadata: 23:42:31.674 BPS : 2249011 23:42:31.674 DURATION : 01:45:40.293000000 23:42:31.674 NUMBER_OF_FRAMES: 152015 23:42:31.674 NUMBER_OF_BYTES : 1782423821 23:42:31.674 Stream #0:1(spa): Audio: eac3, 48000 Hz, 5.1(side), fltp, 640 kb/s (default) (forced) 23:42:31.674 Metadata: 23:42:31.674 title : Castellano DD 5.1 23:42:31.674 BPS : 640000 23:42:31.674 DURATION : 01:45:40.384000000 23:42:31.674 NUMBER_OF_FRAMES: 198137 23:42:31.674 NUMBER_OF_BYTES : 507230720 23:42:31.674 Stream #0:2(eng): Audio: eac3, 48000 Hz, 5.1(side), fltp, 640 kb/s (default) 23:42:31.674 Metadata: 23:42:31.674 title : English 23:42:31.674 BPS : 640000 23:42:31.674 DURATION : 01:45:40.384000000 23:42:31.674 NUMBER_OF_FRAMES: 198137 23:42:31.674 NUMBER_OF_BYTES : 507230720 23:42:31.674 Stream #0:3(spa): Subtitle: subrip (default) (forced) 23:42:31.674 Metadata: 23:42:31.674 title : Forzados srt 23:42:31.674 BPS : 0 23:42:31.674 DURATION : 01:35:59.212000000 23:42:31.674 NUMBER_OF_FRAMES: 13 23:42:31.674 NUMBER_OF_BYTES : 351 23:42:31.674 Stream #0:4(spa): Subtitle: subrip 23:42:31.674 Metadata: 23:42:31.674 title : Completos srt 23:42:31.674 BPS : 41 23:42:31.674 DURATION : 01:36:15.812000000 23:42:31.674 NUMBER_OF_FRAMES: 950 23:42:31.674 NUMBER_OF_BYTES : 30189 23:42:31.674 Stream #0:5(eng): Subtitle: subrip 23:42:31.674 Metadata: 23:42:31.674 BPS : 43 23:42:31.674 DURATION : 01:36:08.930000000 23:42:31.674 NUMBER_OF_FRAMES: 1077 23:42:31.674 NUMBER_OF_BYTES : 31359 23:42:31.674 [NULL @ 0x2c8a4f80] Unable to find a suitable output format for '/transcoding-temp/X16323C/X16323C' 23:42:31.674 /transcoding-temp/X16323C/X16323C: Invalid argument 23:42:31.675 EXIT